<svg width="109" height="115" viewBox="0 0 109 115" fill="none" xmlns="http://www.w3.org/2000/svg">
    <path d="M108.881 66.9398C108.881 96.9041 84.5898 115 54.6255 115C24.6603 115 0.369141 90.7089 0.369141 60.7437C0.369141 30.7794 25.4192 12.3571 55.3836 12.3571C85.3488 12.3571 108.881 36.9746 108.881 66.9398Z" fill="#DC3E22"/>
    <path d="M78.185 36.2439C75.5489 33.5598 71.284 31.0639 68.1081 30.3341C69.8534 28.7865 70.2046 28.7355 72.391 27.6522C77.9932 24.8793 86.2913 24.624 86.2913 24.624C86.2913 24.624 76.497 19.5621 69.3358 19.8797C67.5127 19.9599 65.5898 20.604 63.7346 21.5166C64.7807 20.0403 65.7719 18.5725 66.4056 17.4698C68.3442 14.0981 70.3822 9.85057 70.3822 9.85057C70.3822 9.85057 62.8733 10.2515 59.3903 14.42C58.0676 16.0036 57.0691 18.0155 56.3384 19.9029C55.0406 18.4121 53.6082 17.0845 52.1756 16.0481C45.0129 10.8645 33.5683 11.986 33.5683 11.986C33.5683 11.986 42.2138 16.8902 46.1036 21.7826C47.6224 23.6932 49.1638 24.5767 50.0852 26.7189C46.9003 26.0293 39.7142 26.265 36.1867 27.5729C27.1222 30.9348 23.2164 44.4617 23.2164 44.4617C23.2164 44.4617 32.0618 38.3648 44.0968 34.0876C46.743 33.1475 49.5406 32.8983 51.9789 32.9411C50.872 34.6654 49.6628 36.9045 48.7478 39.5446C46.5215 45.9724 49.4634 61.2701 49.4634 61.2701C49.4634 61.2701 55.9082 52.2234 58.5343 44.8951C59.8821 41.1335 60.2157 37.3568 60.2231 34.5698C62.6131 35.6302 65.4281 37.1793 67.5319 38.5193C78.3038 45.3826 83.4576 57.9127 83.4576 57.9127C83.4576 57.9127 84.9585 43.1422 78.185 36.2439Z" fill="#899441"/>
    <path d="M55.9395 29.6396C55.9053 29.6396 55.8711 29.6388 55.8368 29.6379C53.7066 29.5826 52.0246 27.8121 52.0764 25.6835C52.0808 25.4993 52.2668 12.5386 45.067 6.90318C43.3877 5.58886 43.0911 3.16203 44.4054 1.48184C45.7206 -0.197465 48.1475 -0.49402 49.8268 0.821175C60.1229 8.87817 59.8158 25.1887 59.7982 25.8792C59.7429 27.9761 58.025 29.6396 55.9395 29.6396Z" fill="#A8B64F"/>
    </svg>
    